<svg width="182" height="28" viewBox="0 0 182 28" fill="none" xmlns="http://www.w3.org/2000/svg">
<path d="M94.4013 24.56C97.4413 24.56 99.6013 22.96 99.6013 20.26C99.6013 17.3 97.2213 16.56 95.1013 15.92C92.9213 15.26 92.5813 14.82 92.5813 14.18C92.5813 13.62 93.0813 13.12 94.0813 13.12C95.3613 13.12 96.0213 13.74 96.5013 14.74L99.2013 13.16C98.1813 11.1 96.3813 10 94.0813 10C91.6613 10 89.3813 11.56 89.3813 14.26C89.3813 16.94 91.4213 17.94 93.5013 18.52C95.6013 19.1 96.4013 19.44 96.4013 20.3C96.4013 20.84 96.0213 21.44 94.5013 21.44C92.9213 21.44 92.0613 20.66 91.5613 19.5L88.8013 21.1C89.5813 23.16 91.4613 24.56 94.4013 24.56Z" fill="#FF6800"/>
<path d="M110.093 10.28H99.6927V13.36H103.293V24.28H106.493V13.36H110.093V10.28Z" fill="#FF6800"/>
<path d="M117.373 24.56C121.393 24.56 124.653 21.4 124.653 17.28C124.653 13.16 121.393 10 117.373 10C113.353 10 110.093 13.16 110.093 17.28C110.093 21.4 113.353 24.56 117.373 24.56ZM117.373 21.44C115.093 21.44 113.293 19.78 113.293 17.28C113.293 14.78 115.093 13.12 117.373 13.12C119.653 13.12 121.453 14.78 121.453 17.28C121.453 19.78 119.653 21.44 117.373 21.44Z" fill="#FF6800"/>
<path d="M133.814 24.28H137.254L134.274 19.14C135.814 18.36 136.854 16.8 136.854 15.08C136.854 12.42 134.714 10.28 132.054 10.28H126.454V24.28H129.654V19.68H131.174L133.814 24.28ZM129.654 13.28H132.054C132.934 13.28 133.654 14.06 133.654 15.08C133.654 16.1 132.934 16.88 132.054 16.88H129.654V13.28Z" fill="#FF6800"/>
<path d="M141.959 21.2V18.72H146.959V15.68H141.959V13.36H147.459V10.28H138.759V24.28H147.559V21.2H141.959Z" fill="#FF6800"/>
<path d="M35 23.9833V10.1886H44.2953V12.5932H37.9166V15.8803H43.817V18.2849H37.9166V21.5787H44.3222V23.9833H35Z" fill="black"/>
<path d="M48.9917 23.9833H45.8664L50.6285 10.1886H54.387L59.1424 23.9833H56.0171L52.5617 13.3409H52.4539L48.9917 23.9833ZM48.7964 18.5611H56.1787V20.8377H48.7964V18.5611Z" fill="black"/>
<path d="M67.9713 14.1559C67.9174 13.6126 67.6861 13.1905 67.2775 12.8896C66.8689 12.5888 66.3143 12.4383 65.6138 12.4383C65.1378 12.4383 64.7359 12.5057 64.4081 12.6404C64.0803 12.7706 63.8288 12.9525 63.6537 13.186C63.483 13.4195 63.3977 13.6844 63.3977 13.9808C63.3887 14.2278 63.4404 14.4433 63.5526 14.6274C63.6694 14.8115 63.8288 14.971 64.0309 15.1057C64.233 15.2359 64.4665 15.3504 64.7314 15.4492C64.9963 15.5435 65.2792 15.6243 65.5801 15.6917L66.8195 15.988C67.4212 16.1228 67.9735 16.3024 68.4764 16.5269C68.9794 16.7514 69.415 17.0276 69.7832 17.3554C70.1514 17.6832 70.4365 18.0694 70.6386 18.5139C70.8452 18.9585 70.9507 19.4682 70.9552 20.0429C70.9507 20.8871 70.7352 21.6191 70.3086 22.2388C69.8865 22.854 69.2758 23.3322 68.4764 23.6735C67.6816 24.0103 66.7229 24.1787 65.6003 24.1787C64.4867 24.1787 63.5167 24.008 62.6905 23.6667C61.8687 23.3255 61.2266 22.8203 60.7641 22.1512C60.306 21.4776 60.0658 20.6447 60.0433 19.6523H62.8656C62.897 20.1148 63.0295 20.501 63.263 20.8108C63.501 21.1162 63.8176 21.3474 64.2127 21.5046C64.6124 21.6573 65.0637 21.7336 65.5666 21.7336C66.0606 21.7336 66.4894 21.6617 66.8531 21.5181C67.2214 21.3744 67.5065 21.1745 67.7086 20.9186C67.9107 20.6626 68.0117 20.3685 68.0117 20.0362C68.0117 19.7264 67.9196 19.4659 67.7355 19.2549C67.5559 19.0438 67.291 18.8642 66.9407 18.716C66.5949 18.5678 66.1706 18.4331 65.6677 18.3119L64.1656 17.9347C63.0026 17.6518 62.0843 17.2094 61.4107 16.6077C60.7371 16.006 60.4026 15.1955 60.4071 14.1761C60.4026 13.3409 60.6249 12.6112 61.0739 11.987C61.5274 11.3629 62.1494 10.8756 62.9397 10.5254C63.73 10.1751 64.6281 10 65.634 10C66.6578 10 67.5514 10.1751 68.3148 10.5254C69.0827 10.8756 69.6799 11.3629 70.1065 11.987C70.5331 12.6112 70.7531 13.3342 70.7666 14.1559H67.9713Z" fill="black"/>
<path d="M72.1087 10.1886H75.3755L78.5211 16.1295H78.6558L81.8014 10.1886H85.0682L80.0366 19.1067V23.9833H77.1402V19.1067L72.1087 10.1886Z" fill="black"/>
</svg>
